<svg id="Calque_1" data-name="Calque 1" xmlns="http://www.w3.org/2000/svg" viewBox="0 0 452.57 388.23"><defs><style>.cls-1{fill:#f6a920;}.cls-2{fill:#0c233b;}.cls-3{fill:#fbfbce;}.cls-4{fill:#0291e3;}.cls-5{fill:#074fa5;}.cls-6{font-size:100px;font-family:YouBlockhead, You Blockhead;}.cls-6,.cls-7{fill:#a64416;}</style></defs><path class="cls-1" d="M226.21,383.23A25.37,25.37,0,0,1,211,378.17L106.56,311.05l-.52-.42a25.17,25.17,0,0,1-9.44-19.39L89,111.36v-.27a25.29,25.29,0,0,1,19-24.5L220.14,59.2a25,25,0,0,1,6.21-.77,25.61,25.61,0,0,1,5.8.67L344,86.68a25.19,25.19,0,0,1,19.43,24.6v.54l-7.63,179.42a25.21,25.21,0,0,1-9.45,19.4l-.52.42L241.43,378.17A25.46,25.46,0,0,1,226.21,383.23Zm-.52-25.67.52.42.52-.42,103.81-66.72v-.45l7.62-179.11L221.35,83.72l-107.1,27.37,7.64,179.57v.18Z"/><path class="cls-2" d="M226.35,63.43A20.32,20.32,0,0,1,231,64L342.84,91.54a20.2,20.2,0,0,1,15.62,19.74v.33l-7.64,179.5a20.22,20.22,0,0,1-7.58,15.63l-.31.25L238.56,374.07a20.41,20.41,0,0,1-24.7,0L109.49,307l-.32-.25a20.21,20.21,0,0,1-7.57-15.63L94,111.25v-.16a20.28,20.28,0,0,1,15.26-19.65L221.32,64.06a20.39,20.39,0,0,1,5-.63M226.21,363a5,5,0,0,0,3.13-1.1l.31-.25.34-.22L333.9,294.62a5,5,0,0,0,1.63-3.69v-.33l7.63-179.45a5,5,0,0,0-3.84-4.73L222.5,78.85a5,5,0,0,0-1.15-.13,5.19,5.19,0,0,0-1.24.15L113,106.25a5,5,0,0,0-3.76,4.72l7.65,179.79v.17a5,5,0,0,0,1.62,3.69l104.25,67,.32.25a5,5,0,0,0,3.13,1.1m.14-309.54a30.11,30.11,0,0,0-7.45.93L106.84,81.72l0,0h-.05A30.26,30.26,0,0,0,84,111.09v.59l7.64,179.7a30.14,30.14,0,0,0,11.31,23.15l.32.26.41.33.44.28,104.06,66.88a30.41,30.41,0,0,0,36.14,0l104-66.88.45-.28.41-.33.31-.26a30.15,30.15,0,0,0,11.32-23.15L368.45,112v-.75a30.17,30.17,0,0,0-23.27-29.46L233.4,54.26h-.1a30.08,30.08,0,0,0-7-.81Zm-106.93,61.5,102-26.06L333,115.2,325.64,288,226.21,352,126.78,288l-7.36-173.11Z"/><path class="cls-3" d="M109.24,111a5,5,0,0,1,3.76-4.72L225.11,78.87a5.08,5.08,0,0,1,2.39,0l111.83,27.57a5,5,0,0,1,3.84,4.73l-.56,13.3,15.16,3.31.69-16.15v-.33a20.2,20.2,0,0,0-15.62-19.74L231,64a20.36,20.36,0,0,0-9.69.09L109.21,91.44A20.28,20.28,0,0,0,94,111.09v.16l.6,14L109.71,122Z"/><path class="cls-4" d="M338.45,300.78,234.13,367.83a12.64,12.64,0,0,1-15.84,0L114,300.78a12.65,12.65,0,0,1-4.72-9.85L101.6,111.09a12.64,12.64,0,0,1,9.51-12.25L223.22,71.47a12.55,12.55,0,0,1,6-.06L341.08,99a12.63,12.63,0,0,1,9.74,12.3l-7.65,179.65A12.62,12.62,0,0,1,338.45,300.78Z"/><path class="cls-5" d="M341.08,99,229.25,71.41a12.51,12.51,0,0,0-2.79-.33V370.61a12.69,12.69,0,0,0,7.67-2.78l104.32-67.05a12.62,12.62,0,0,0,4.72-9.85l7.65-179.65A12.63,12.63,0,0,0,341.08,99Z"/><path class="cls-2" d="M72.6,145.57h1.56q6.15.1,8.35,1c.29,1.75.48,3.46.61,5.16a15.67,15.67,0,0,1,4.39.84,50.47,50.47,0,0,1,0,17.43c-2.47.2-5.66.39-9.55.59s-6.94.35-9.15.48a66.62,66.62,0,0,0-7.74,1,44.59,44.59,0,0,0-8.13,2.22,102.6,102.6,0,0,0-2.83,11.55A66.43,66.43,0,0,0,49,198.41a30.44,30.44,0,0,0,.39,5,51.39,51.39,0,0,0,8.21,1.15q8.6.63,16.87.85c5.51.15,8.86.47,10,1a39.18,39.18,0,0,1-.11,5.26,20,20,0,0,1,5.11.74A46.52,46.52,0,0,1,88.66,223c-.74,4-1.7,6.36-2.91,7.21q-10.05-.15-16.65-.39T53,228.93a172.72,172.72,0,0,1-17.79-2.15A111.37,111.37,0,0,1,19.93,223a15.24,15.24,0,0,1-2.76-5.31c-.75-.23-1.51-.45-2.24-.69q-3.07-3.51-4.22-12.11a87.64,87.64,0,0,1-.44-18.14A109.88,109.88,0,0,1,13.32,168q2.34-9.28,5.71-14.11a50.23,50.23,0,0,1,10.23-3.18q6.91-1.56,15-2.68t15.92-1.81q6.87-.6,12.45-.6m0-10c-4,0-8.47.22-13.32.64-5.39.47-10.92,1.09-16.43,1.86s-10.94,1.74-15.79,2.84a59,59,0,0,0-12.39,3.93L12.32,146l-1.49,2.14c-3,4.26-5.33,9.94-7.21,17.38A120.69,120.69,0,0,0,.3,186a97.05,97.05,0,0,0,.5,20.2c1,7.8,3.2,13.48,6.61,17.37l1.8,2.06.6.2a20.52,20.52,0,0,0,2.6,3.74l1.8,2.06,2.6.86a120.79,120.79,0,0,0,16.61,4.1,181.84,181.84,0,0,0,18.83,2.28c6.44.46,12,.78,16.48.95s10.13.3,16.88.39l3.24,0,2.65-1.86c4.56-3.21,6.13-8.94,7-13.57a56.58,56.58,0,0,0,1-13l-.32-6.3-4.8-2-.2-4-5.82-2.43c-2.2-.91-5.14-1.49-13.62-1.71-5.09-.14-10.35-.4-15.63-.78a54.36,54.36,0,0,1,.83-6.88q.51-2.76,1.16-5.41c.58-.13,1.16-.25,1.76-.36a54.77,54.77,0,0,1,6.54-.85c2.21-.13,5.26-.29,9.06-.49,4-.2,7.28-.4,9.84-.6l7.65-.6,1.39-7.56a60.57,60.57,0,0,0,0-20.86l-.9-5.45-4.31-1.82-.69-4.18L86.4,137.4c-2.8-1.18-6.41-1.72-12.08-1.82Z"/><path class="cls-2" d="M221.35,144.52q16.13,0,25.86,1.89c.28,1.16.74,3,1.36,5.4,1.28.18,2.49.38,3.64.6q1,4,4.59,17.92t5.12,20.24q1.51,6.28,3.91,17.53t3.95,21.22a151.38,151.38,0,0,1-24,1.83q-3.23,0-6.53-.12c-.8-2.07-1.5-4-2.13-5.93l-2.87-.07c-1.06-2.73-2-5.3-2.72-7.75-2.8-.2-5.83-.31-9.1-.31-1.48,0-3,0-4.59.07a100.15,100.15,0,0,0-15.12,1.29,63.46,63.46,0,0,0-2.92,5.89,64.49,64.49,0,0,0-2.15,6.32,80.74,80.74,0,0,1-14.36,1.12,98.35,98.35,0,0,1-13.87-.83q.41-2.46,1.11-5.39c-2-.12-3.88-.31-5.57-.54-.12.76-.26,1.51-.42,2.22q-10,1.22-30.15,2.17-10.79.51-19.59.51-7.67,0-13.83-.38c0-1.37-.09-3.3-.18-5.78-1.67-.06-3.29-.13-4.82-.22q-.1-4.3-.56-16t-.76-20.65q-.3-8.94-.44-21.2T94.52,148Q97,147,110.05,146.51q5.36-.18,9.18-.18a57.29,57.29,0,0,1,7.91.38c0,1.73-.08,3.63-.12,5.65a39.75,39.75,0,0,1,5.12.35q-.4,16.44-.44,49.74c2,.19,4.06.29,6.33.31h1.59q5.43,0,9.15-.3,4.24-.34,11.13-1.12.39,3.41.52,6.49l4.48-.49a77.36,77.36,0,0,1,.53,12.39,198.9,198.9,0,0,1,7-22.18q6-16.25,13.11-32.94c.16-.62.35-1.31.56-2.1l.09-.32-2.48-.26a22.7,22.7,0,0,1-3.86-.93c.26-.84.68-2.34,1.25-4.49s1.11-4,1.63-5.66a19.63,19.63,0,0,1,1.62-3.86q10.35-2,30.86-2.42c2.13,0,4.18-.06,6.17-.06m-7.19,47.78h1.53a57.66,57.66,0,0,0,9.2-.56,109.66,109.66,0,0,0-2.37-13.5c-.66-2.84-1.34-5.26-2-7.3a4.67,4.67,0,0,0-2,2.09q-1.08,1.86-4.79,12.38-1.44,4.08-2.32,6.87c.87,0,1.78,0,2.75,0m7.19-57.78c-2,0-4.19,0-6.38.06-14.37.3-25,1.15-32.55,2.6L178,138l-2.29,3.9a28.87,28.87,0,0,0-2.51,5.87c-.57,1.78-1.17,3.85-1.78,6.15-.66,2.51-1,3.62-1.13,4.11l-2.49,8.1,5.15,2.58c-3.09,7.47-6,14.85-8.68,22l-5.48.62c-4.46.51-8.1.87-10.8,1.09-1.72.14-3.82.22-6.25.25.05-17.26.19-30.62.42-39.8l.21-8.75-5.13-.81.13-5.19-8.65-1.37a64.13,64.13,0,0,0-9.47-.5c-2.65,0-5.86.06-9.52.19-12.55.42-16.55,1.18-19.22,2.35l-5.38,2.37-.55,5.86c-.36,3.9-.48,10-.38,18.57.1,8.21.25,15.41.44,21.4s.46,13,.76,20.73.5,13,.56,15.84l.21,9.18,4.87.31.13,5.69,9.16.58c4.3.27,9.16.4,14.46.4,6,0,12.75-.17,20.06-.52,9.44-.44,17.14-.92,23.29-1.46l-.23,1.43,10.05,1.48a106.63,106.63,0,0,0,15.32.93,91.4,91.4,0,0,0,16.15-1.28l6-1.11,1.75-5.88a55,55,0,0,1,1.79-5.32c.07-.15.14-.33.24-.54,2.2-.21,5.09-.39,8.85-.5,1.48,0,2.94-.06,4.32-.06l1.86,0c.21.55.42,1.1.64,1.66l2.38,6.13,2.71.1,2.29,5.9,6.58.24c2.31.08,4.63.13,6.89.13a162.15,162.15,0,0,0,25.62-2l9.84-1.58-1.55-9.84c-1.06-6.79-2.42-14.1-4.05-21.75s-2.94-13.54-4-17.79-2.75-11.08-5.16-20.4-3.92-15.2-4.56-17.81l-1.53-6.2-3.7-.72-1.3-5.28-6.27-1.22c-7.18-1.4-16.27-2.08-27.77-2.08Z"/><path class="cls-2" d="M334.38,145.37c1.83,0,3.67,0,5.5.07a29,29,0,0,1,1.41,5.94c1.2,0,2.39,0,3.59.06q2.21,5.85,2,17.87-4.49.58-16.18,1.66t-17.95,2.15a12.82,12.82,0,0,0-2.12,4.81c-.07.3-.12.62-.18.94,3.82.58,8.42,1.25,13.83,2q12.48,1.76,17.51,2.54a30.13,30.13,0,0,1,1.86,5.52l3.14.48a30.81,30.81,0,0,1,2.44,16.38,36.16,36.16,0,0,1-5.37,15.7,141.33,141.33,0,0,1-28.3,8.59q-15.3,3-34,4.93c-.9-.6-1.69-2.71-2.39-6.28l-2.61.28q-1.6-1.08-2.78-8.5c-.78-4.94-1.08-8.41-.88-10.4a174.07,174.07,0,0,0,19.34-2.07q10.59-1.68,14.74-3.44a11.53,11.53,0,0,0,.63-2.46l-1.93-.33c-3.58-.56-7.28-1-11.1-1.35s-7.7-.86-11.63-1.56-6.71-1.54-8.37-2.51c-.08-1.42-.11-2.83-.11-4.22a19.45,19.45,0,0,1-4.89-1.78,69.61,69.61,0,0,1,7.91-37.11,158.48,158.48,0,0,1,30-6.35,230.85,230.85,0,0,1,26.87-1.58m0-10a242.15,242.15,0,0,0-28,1.65,168.9,168.9,0,0,0-31.92,6.76L270.56,145l-1.91,3.58a79.83,79.83,0,0,0-9.07,42.34l.29,5.36L264.5,199l.2.11.07,1.35-1,0-.85,8.63c-.29,2.94,0,6.93.95,12.93,1.12,7.06,2.75,12.35,7.11,15.26l.35.23a13.12,13.12,0,0,0,4.65,5.77l3,2,3.58-.36c12.71-1.3,24.47-3,34.93-5.07a151.78,151.78,0,0,0,30.3-9.21l2.83-1.22,1.66-2.59a46.36,46.36,0,0,0,6.88-20,40.88,40.88,0,0,0-3.27-21.6l-2.23-4.94L351.2,180l-.3-.68-.19-.42,6-.78.14-8.64c.15-9.36-.71-16.41-2.63-21.54l-2.38-6.33-2.77-.06-2.23-5.94-6.75-.16c-1.9-.05-3.83-.07-5.74-.07Z"/><path class="cls-2" d="M430.73,143.39a28.74,28.74,0,0,1,6,.44q.24,2.43.42,5.58a23.46,23.46,0,0,1,4.58.42q.48,4.83.68,12.52t.17,14.82q0,7.13-.22,16.89T442,209.35q-.18,5.52-.47,13.69c-.19,5.46-.29,8.34-.29,8.67a129.35,129.35,0,0,1-14.82.56h-1.64q-9.58,0-11.62-.27c-.09-1.36-.11-3.29,0-5.77-2.51,0-4.17-.12-5-.23q-.19-2.77.05-8.64c.17-3.91.23-7.67.2-11.28,0-1.19-.06-2.29-.13-3.36-2.28-.12-4.33-.18-6.17-.18q-9.9,0-11.36,2.36a236.57,236.57,0,0,0-.68,27.2,102.19,102.19,0,0,1-18.41,1.59q-5.24,0-10.79-.47c-.27-1.44-.5-3.36-.7-5.71-1.42-.07-2.85-.17-4.3-.29q-1.17-6.3-1.44-24t0-32.18q.3-14.48.69-24.73,5.11-1.47,17.55-1.74c1.4,0,2.69,0,3.88,0,5.82,0,9.05.36,9.67,1.09-.27,1.47-.49,3.13-.65,5,3.3.14,5.19.48,5.65,1a62,62,0,0,0-.81,6.91c-.17,2.65-.28,4.7-.31,6.13s0,4,0,7.57V173h1.11c.62,0,1.26,0,1.94,0q4.89-.25,9.23-.88a42.69,42.69,0,0,0,6-1.17,36.28,36.28,0,0,0,.54-7.16c-.07-2.36-.17-5.48-.32-9.37s-.16-6.81,0-8.77q3-1.32,14-1.95,4.89-.28,8.25-.29m0-10c-2.42,0-5.4.11-8.83.31-11.16.65-14.94,1.71-17.36,2.76L399,138.89l-.39,6a10.9,10.9,0,0,0-1.76-1.53l.1-.55-3.08-3.61c-3.34-3.92-8.23-4.61-17.28-4.61-1.25,0-2.63,0-4.1,0-9.35.21-15.74.88-20.08,2.12l-7,2-.28,7.24c-.26,6.85-.49,15.23-.68,24.92s-.21,20.68,0,32.53c.19,12.65.7,20.81,1.61,25.67l1.39,7.51,3.95.32,1.05,5.68,7.61.63c4,.33,7.87.5,11.62.5a112.86,112.86,0,0,0,20.2-1.75l8.57-1.56-.23-5.35,3.18.42.38,5.39,8.08,1.08c1.4.18,3.93.35,12.94.35h1.66c10.54,0,14.3-.39,16.21-.66l8.59-1.23v-8.6c0-.31,0-1.76.29-8.38q.28-8.21.46-13.74c.12-3.7.24-8.88.37-15.4s.21-12.27.22-17.06,0-9.92-.17-15.1c-.14-5.44-.38-9.78-.73-13.28l-.72-7.1-4.5-1.05-.5-4.95L439,134.09a36.7,36.7,0,0,0-8.27-.7Z"/><text class="cls-6" transform="translate(11.4 229.12)">CLASH</text><path class="cls-1" d="M84.37,206.33A46,46,0,0,1,83.52,217q-1.09,5.94-2.91,7.21-10-.15-16.65-.39t-16.13-.93A172.59,172.59,0,0,1,30,220.78,111.73,111.73,0,0,1,14.79,217q-3.07-3.51-4.22-12.11a88.34,88.34,0,0,1-.44-18.14,109.88,109.88,0,0,1,3-18.82q2.36-9.28,5.72-14.11a49.81,49.81,0,0,1,10.23-3.18q6.9-1.56,15-2.68T60,146.17a138.54,138.54,0,0,1,14-.59c4.1.07,6.89.41,8.35,1a50.47,50.47,0,0,1,0,17.43c-2.47.2-5.65.39-9.54.59s-6.94.35-9.16.48a67.17,67.17,0,0,0-7.74,1,45,45,0,0,0-8.13,2.22A102.6,102.6,0,0,0,45,179.89a67.27,67.27,0,0,0-1.1,12.52c0,4.33.69,7.57,2,9.72q3,1.76,11.57,2.39t16.87.85Q82.62,205.6,84.37,206.33Z"/><path class="cls-1" d="M159.77,201.35q1.36,11.86-.4,19.77-10,1.22-30.15,2.17a314.45,314.45,0,0,1-33.42.13q-.1-4.3-.56-16t-.76-20.65q-.28-8.94-.44-21.2T94.38,148q2.45-1.07,15.53-1.51t17.09.2q-.44,17.72-.44,55a60,60,0,0,0,11.33,1c4.33,0,7.91-.06,10.74-.29S155.18,201.87,159.77,201.35Z"/><path class="cls-1" d="M264.65,223.32A157.3,157.3,0,0,1,234.08,225a104.22,104.22,0,0,1-4.3-13.43,124.19,124.19,0,0,0-17.11-.56,100,100,0,0,0-15.11,1.29,49.6,49.6,0,0,0-5.08,12.21,80.74,80.74,0,0,1-14.36,1.12,98.19,98.19,0,0,1-13.86-.83q1.61-9.86,8-27.27t14.11-35.33l-2.84-.29a22.46,22.46,0,0,1-3.85-.93c.26-.84.67-2.34,1.24-4.49s1.12-4,1.64-5.66a19.69,19.69,0,0,1,1.61-3.86q10.35-2,30.86-2.42t32,1.83q1,4,4.59,17.92t5.13,20.24q1.51,6.28,3.9,17.53T264.65,223.32Zm-39.89-31.59a113.58,113.58,0,0,0-2.37-13.5A52.59,52.59,0,0,0,218.75,167c-.85-1.6-1.75-2.35-2.71-2.27s-1.85.84-2.66,2.27q-1.08,1.86-4.79,12.38t-3.71,12.42a73.74,73.74,0,0,0,10.67.47A57.82,57.82,0,0,0,224.76,191.73Z"/><path class="cls-1" d="M341.75,163.31q-4.5.58-16.19,1.66t-17.94,2.15a12.84,12.84,0,0,0-2.13,4.81,34.47,34.47,0,0,0-.66,6.08q6.84,1.11,19.32,2.88t17.5,2.54a30.81,30.81,0,0,1,2.44,16.38,36.16,36.16,0,0,1-5.37,15.7,141.33,141.33,0,0,1-28.3,8.59q-15.3,3-34,4.93-1.62-1.08-2.79-8.5a48.35,48.35,0,0,1-.88-10.4,173.82,173.82,0,0,0,19.34-2.07q10.59-1.68,14.75-3.44a14,14,0,0,0,.68-6.89c-1.08-.71-3.4-1.35-7-1.9s-7.29-1-11.11-1.35-7.7-.86-11.62-1.56-6.72-1.54-8.38-2.51a69.71,69.71,0,0,1,7.91-37.11,158.82,158.82,0,0,1,30-6.35,229.66,229.66,0,0,1,32.38-1.51Q341.94,151.29,341.75,163.31Z"/><path class="cls-1" d="M436.57,143.83q.49,4.83.69,12.52t.17,14.82q0,7.13-.22,16.89t-.37,15.29q-.16,5.52-.46,13.69c-.2,5.46-.3,8.34-.3,8.67a129.1,129.1,0,0,1-14.82.56q-11.06,0-13.25-.27a83.67,83.67,0,0,1,.05-8.64q.24-5.87.19-11.28a43.08,43.08,0,0,0-.88-9.08q-19.68-1.51-21.77,1.9a236.82,236.82,0,0,0-.69,27.2,111,111,0,0,1-29.2,1.12q-1.17-6.3-1.44-24t0-32.18q.29-14.48.68-24.73,5.13-1.47,17.55-1.74t13.55,1a64.69,64.69,0,0,0-.8,6.91c-.18,2.65-.29,4.7-.32,6.13s0,4,0,7.57.05,5.68.05,6.2a28.18,28.18,0,0,0,8,.54q4.88-.25,9.23-.88a42.78,42.78,0,0,0,5.95-1.17,34.82,34.82,0,0,0,.54-7.16c-.07-2.36-.17-5.48-.32-9.37s-.15-6.81,0-8.77q3-1.32,13.94-1.95T436.57,143.83Z"/><path class="cls-3" d="M45,179.89a102.6,102.6,0,0,1,2.83-11.55,45,45,0,0,1,8.13-2.22,67.17,67.17,0,0,1,7.74-1q3.33-.2,9.16-.48c3.89-.2,7.07-.39,9.54-.59a50.47,50.47,0,0,0,0-17.43c-1.46-.62-4.25-1-8.35-1a138.54,138.54,0,0,0-14,.59q-7.86.69-15.92,1.81t-15,2.68a49.81,49.81,0,0,0-10.23,3.18q-3.37,4.83-5.72,14.11a109.88,109.88,0,0,0-3,18.82c0,.08,0,.15,0,.23h34A63,63,0,0,1,45,179.89Z"/><path class="cls-3" d="M127,146.71q-4-.65-17.09-.2T94.38,148q-.48,5.28-.34,17.53t.44,21.2V187h32.09Q126.66,160.74,127,146.71Z"/><path class="cls-3" d="M208.59,179.4q3.72-10.53,4.79-12.38c.81-1.43,1.7-2.19,2.66-2.27s1.86.67,2.71,2.27a52.59,52.59,0,0,1,3.64,11.21c.72,3.11,1.29,6,1.72,8.77h33.25c-.2-.86-.39-1.68-.57-2.43q-1.52-6.27-5.13-20.24t-4.59-17.92q-11.52-2.24-32-1.83T184.18,147a19.69,19.69,0,0,0-1.61,3.86q-.78,2.43-1.64,5.66c-.57,2.15-1,3.65-1.24,4.49a22.46,22.46,0,0,0,3.85.93l2.84.29Q181,174.76,176.28,187H206Q207,184,208.59,179.4Z"/><path class="cls-3" d="M341.65,183.43q-5-.8-17.5-2.54T304.83,178a34.47,34.47,0,0,1,.66-6.08,12.84,12.84,0,0,1,2.13-4.81q6.24-1.08,17.94-2.15t16.19-1.66q.19-12-2-17.87A229.66,229.66,0,0,0,307.37,147a158.82,158.82,0,0,0-30,6.35,69,69,0,0,0-8,33.7H343A27.35,27.35,0,0,0,341.65,183.43Z"/><path class="cls-3" d="M437.43,171.17q0-7.12-.17-14.82t-.69-12.52q-3.31-.78-14.23-.15t-13.94,1.95q-.19,2.94,0,8.77c.15,3.89.25,7,.32,9.37a34.82,34.82,0,0,1-.54,7.16,42.78,42.78,0,0,1-5.95,1.17q-4.35.63-9.23.88a28.18,28.18,0,0,1-8-.54q0-.78-.05-6.2t0-7.57c0-1.43.14-3.48.32-6.13a64.69,64.69,0,0,1,.8-6.91q-1.12-1.32-13.55-1T355,146.32q-.39,10.25-.68,24.73c-.11,5-.15,10.34-.15,15.95h83.08Q437.4,177.91,437.43,171.17Z"/><path class="cls-3" d="M99.58,294.43c-6.31,0-11-1.36-14.36-4.16-3.58-3-5.4-7.38-5.4-13.08V258.53c0-5.73,1.82-10.15,5.4-13.14,3.36-2.8,8-4.16,14.36-4.16h14.64a6.86,6.86,0,0,1,7.16,7.16v7.26a6.85,6.85,0,0,1-7.16,7.16H103.5V273h10.72a6.86,6.86,0,0,1,7.16,7.16v7.14a6.85,6.85,0,0,1-7.16,7.16Z"/><path class="cls-2" d="M114.22,246.23a1.91,1.91,0,0,1,2.16,2.16v7.26a1.91,1.91,0,0,1-2.16,2.16H102.16q-3.66,0-3.66,3v14.28q0,2.88,3.66,2.88h12.06a1.91,1.91,0,0,1,2.16,2.16v7.14a1.91,1.91,0,0,1-2.16,2.16H99.58q-7.56,0-11.16-3t-3.6-9.24V258.53q0-6.3,3.6-9.3t11.16-3h14.64m0-10H99.58c-7.42,0-13.33,1.79-17.56,5.32-3.29,2.74-7.2,7.91-7.2,17v18.66c0,9,3.91,14.19,7.2,16.93,4.23,3.52,10.14,5.31,17.56,5.31h14.64a11.89,11.89,0,0,0,12.16-12.16v-7.14A11.9,11.9,0,0,0,114.22,268H108.5v-.16h5.72a11.89,11.89,0,0,0,12.16-12.16v-7.26a11.9,11.9,0,0,0-12.16-12.16Z"/><path class="cls-3" d="M140.86,295.33a45.63,45.63,0,0,1-10.43-1,19.27,19.27,0,0,1-7.62-3.44,13.8,13.8,0,0,1-4.46-6,19.38,19.38,0,0,1-1.15-6.76V257.63a19.23,19.23,0,0,1,1.16-6.76,13.73,13.73,0,0,1,4.45-6,19.44,19.44,0,0,1,7.58-3.46,44.14,44.14,0,0,1,10.47-1,44.14,44.14,0,0,1,10.47,1,19.44,19.44,0,0,1,7.58,3.46,13.54,13.54,0,0,1,4.44,6.09,19.58,19.58,0,0,1,1.11,6.7v20.46a19.64,19.64,0,0,1-1.11,6.71,13.54,13.54,0,0,1-4.44,6.09,19.27,19.27,0,0,1-7.62,3.44A45.69,45.69,0,0,1,140.86,295.33Zm0-21.58V262h-.08v11.72Z"/><path class="cls-2" d="M140.86,245.33a39.51,39.51,0,0,1,9.27.9,14.8,14.8,0,0,1,5.67,2.52,8.63,8.63,0,0,1,2.85,3.87,14.71,14.71,0,0,1,.81,5v20.46a14.71,14.71,0,0,1-.81,5A8.63,8.63,0,0,1,155.8,287a14.5,14.5,0,0,1-5.67,2.49,40.82,40.82,0,0,1-9.27.87,40.82,40.82,0,0,1-9.27-.87,14.5,14.5,0,0,1-5.67-2.49A8.85,8.85,0,0,1,123,283.1a14.23,14.23,0,0,1-.84-5V257.63a14.23,14.23,0,0,1,.84-5,8.85,8.85,0,0,1,2.88-3.87,14.8,14.8,0,0,1,5.67-2.52,39.51,39.51,0,0,1,9.27-.9m0,33.42q3.3,0,4.17-.81a2.64,2.64,0,0,0,.87-2V259.79a2.54,2.54,0,0,0-.87-2q-.87-.78-4.17-.78t-4.14.78a2.51,2.51,0,0,0-.9,2v16.14a2.6,2.6,0,0,0,.9,2q.9.81,4.14.81m0-43.42a48.39,48.39,0,0,0-11.68,1.2,24.35,24.35,0,0,0-9.48,4.39,18.68,18.68,0,0,0-6,8.21,24.1,24.1,0,0,0-1.47,8.5v20.46a24.11,24.11,0,0,0,1.47,8.51,18.79,18.79,0,0,0,6,8.21,24.09,24.09,0,0,0,9.56,4.38,50.13,50.13,0,0,0,11.6,1.14,50.13,50.13,0,0,0,11.6-1.14,24.15,24.15,0,0,0,9.56-4.38,18.63,18.63,0,0,0,6-8.32,24.72,24.72,0,0,0,1.4-8.4V257.63a24.66,24.66,0,0,0-1.4-8.39,18.57,18.57,0,0,0-6-8.32,24.35,24.35,0,0,0-9.48-4.39,48.5,48.5,0,0,0-11.68-1.2Z"/><path class="cls-3" d="M192.82,294.43a6.85,6.85,0,0,1-7.16-7.16v-5.58l-.26-.31v5.89a6.85,6.85,0,0,1-7.16,7.16h-9a6.85,6.85,0,0,1-7.16-7.16V248.39a6.85,6.85,0,0,1,7.16-7.16h6.24a9.37,9.37,0,0,1,7.34,3.38l2.85,3.26a6.83,6.83,0,0,1,7.15-6.64h9a6.86,6.86,0,0,1,7.16,7.16v38.88a6.85,6.85,0,0,1-7.16,7.16Z"/><path class="cls-2" d="M201.82,246.23a1.91,1.91,0,0,1,2.16,2.16v38.88a1.91,1.91,0,0,1-2.16,2.16h-9a1.91,1.91,0,0,1-2.16-2.16v-7.38L180.4,267.47v19.8a1.91,1.91,0,0,1-2.16,2.16h-9a1.91,1.91,0,0,1-2.16-2.16V248.39a1.91,1.91,0,0,1,2.16-2.16h6.24a4.44,4.44,0,0,1,3.54,1.62l11.64,13.32V248.39a1.91,1.91,0,0,1,2.16-2.16h9m0-10h-9a12.18,12.18,0,0,0-8.29,3.11,14.43,14.43,0,0,0-9.05-3.11h-6.24a11.9,11.9,0,0,0-12.16,12.16v38.88a11.89,11.89,0,0,0,12.16,12.16h9a12.35,12.35,0,0,0,7.29-2.29,12.33,12.33,0,0,0,7.29,2.29h9A11.89,11.89,0,0,0,214,287.27V248.39a11.9,11.9,0,0,0-12.16-12.16Z"/><path class="cls-3" d="M238,294.43a6.85,6.85,0,0,1-7.16-7.16v-5.58l-.26-.31v5.89a6.85,6.85,0,0,1-7.16,7.16h-9a6.85,6.85,0,0,1-7.16-7.16V248.39a6.85,6.85,0,0,1,7.16-7.16h6.24a9.37,9.37,0,0,1,7.34,3.38l2.85,3.26a6.83,6.83,0,0,1,7.15-6.64h9a6.86,6.86,0,0,1,7.16,7.16v38.88a6.85,6.85,0,0,1-7.16,7.16Z"/><path class="cls-2" d="M247,246.23a1.91,1.91,0,0,1,2.16,2.16v38.88a1.91,1.91,0,0,1-2.16,2.16h-9a1.91,1.91,0,0,1-2.16-2.16v-7.38l-10.26-12.42v19.8a1.91,1.91,0,0,1-2.16,2.16h-9a1.91,1.91,0,0,1-2.16-2.16V248.39a1.91,1.91,0,0,1,2.16-2.16h6.24a4.44,4.44,0,0,1,3.54,1.62l11.64,13.32V248.39a1.91,1.91,0,0,1,2.16-2.16h9m0-10h-9a12.18,12.18,0,0,0-8.29,3.11,14.43,14.43,0,0,0-9.05-3.11h-6.24a11.9,11.9,0,0,0-12.16,12.16v38.88a11.89,11.89,0,0,0,12.16,12.16h9a12.35,12.35,0,0,0,7.29-2.29,12.33,12.33,0,0,0,7.29,2.29h9a11.89,11.89,0,0,0,12.16-12.16V248.39A11.9,11.9,0,0,0,247,236.23Z"/><path class="cls-3" d="M259.6,294.43a6.85,6.85,0,0,1-7.16-7.16V248.39a6.85,6.85,0,0,1,7.16-7.16h27.84a6.86,6.86,0,0,1,7.16,7.16v7a6.79,6.79,0,0,1-5.11,6.91,8.36,8.36,0,0,1,.25,2v6.42a8,8,0,0,1-.4,2.54,6.79,6.79,0,0,1,5.26,6.94v7a6.85,6.85,0,0,1-7.16,7.16Z"/><path class="cls-2" d="M287.44,246.23a1.91,1.91,0,0,1,2.16,2.16v7a1.91,1.91,0,0,1-2.16,2.16H270.88v4.62h11.7a1.91,1.91,0,0,1,2.16,2.16v6.42a1.91,1.91,0,0,1-2.16,2.16h-11.7v5.16h16.56a1.91,1.91,0,0,1,2.16,2.16v7a1.91,1.91,0,0,1-2.16,2.16H259.6a1.91,1.91,0,0,1-2.16-2.16V248.39a1.91,1.91,0,0,1,2.16-2.16h27.84m0-10H259.6a11.89,11.89,0,0,0-12.16,12.16v38.88a11.88,11.88,0,0,0,12.16,12.16h27.84a11.89,11.89,0,0,0,12.16-12.16v-7a12,12,0,0,0-4.86-9.85v-5.13a12,12,0,0,0,4.86-9.86v-7a11.9,11.9,0,0,0-12.16-12.16Z"/><path class="cls-3" d="M310.48,294.43c-6.31,0-11-1.36-14.36-4.16-3.59-3-5.4-7.38-5.4-13.08V258.53c0-5.73,1.81-10.15,5.4-13.14,3.36-2.8,8.05-4.16,14.36-4.16h14.64a6.86,6.86,0,0,1,7.16,7.16v7.26a6.85,6.85,0,0,1-7.16,7.16H314.4V273h10.72a6.86,6.86,0,0,1,7.16,7.16v7.14a6.85,6.85,0,0,1-7.16,7.16Z"/><path class="cls-2" d="M325.12,246.23a1.91,1.91,0,0,1,2.16,2.16v7.26a1.91,1.91,0,0,1-2.16,2.16H313.06q-3.66,0-3.66,3v14.28q0,2.88,3.66,2.88h12.06a1.91,1.91,0,0,1,2.16,2.16v7.14a1.91,1.91,0,0,1-2.16,2.16H310.48q-7.56,0-11.16-3t-3.6-9.24V258.53q0-6.3,3.6-9.3t11.16-3h14.64m0-10H310.48c-7.42,0-13.33,1.79-17.56,5.32-3.29,2.74-7.2,7.91-7.2,17v18.66c0,9,3.91,14.19,7.2,16.93,4.23,3.52,10.14,5.31,17.56,5.31h14.64a11.89,11.89,0,0,0,12.16-12.16v-7.14A11.9,11.9,0,0,0,325.12,268H319.4v-.16h5.72a11.89,11.89,0,0,0,12.16-12.16v-7.26a11.9,11.9,0,0,0-12.16-12.16Z"/><path class="cls-3" d="M344.74,294.43a6.85,6.85,0,0,1-7.16-7.16V262.81h-3.82a6.85,6.85,0,0,1-7.16-7.16v-7.26a6.85,6.85,0,0,1,7.16-7.16h31.68a6.86,6.86,0,0,1,7.16,7.16v7.26a6.85,6.85,0,0,1-7.16,7.16h-3.82v24.46a6.85,6.85,0,0,1-7.16,7.16Z"/><path class="cls-2" d="M365.44,246.23a1.91,1.91,0,0,1,2.16,2.16v7.26a1.91,1.91,0,0,1-2.16,2.16h-8.82v29.46a1.91,1.91,0,0,1-2.16,2.16h-9.72a1.91,1.91,0,0,1-2.16-2.16V257.81h-8.82a1.91,1.91,0,0,1-2.16-2.16v-7.26a1.91,1.91,0,0,1,2.16-2.16h31.68m0-10H333.76a11.9,11.9,0,0,0-12.16,12.16v7.26a11.85,11.85,0,0,0,11,12.11v19.51a11.89,11.89,0,0,0,12.16,12.16h9.72a11.89,11.89,0,0,0,12.16-12.16V267.76a11.86,11.86,0,0,0,11-12.11v-7.26a11.9,11.9,0,0,0-12.16-12.16Z"/><path class="cls-3" d="M114.22,289.43H99.58q-7.56,0-11.16-3t-3.6-9.24V258.53c0-4.2,1.2-7.29,3.6-9.3s6.12-3,11.16-3h14.64a1.91,1.91,0,0,1,2.16,2.16v7.26a1.91,1.91,0,0,1-2.16,2.16H102.16q-3.66,0-3.66,3v14.28q0,2.88,3.66,2.88h12.06a1.91,1.91,0,0,1,2.16,2.16v7.14A1.91,1.91,0,0,1,114.22,289.43Z"/><path class="cls-3" d="M159.46,278.09a14.71,14.71,0,0,1-.81,5A8.63,8.63,0,0,1,155.8,287a14.5,14.5,0,0,1-5.67,2.49,40.82,40.82,0,0,1-9.27.87,40.82,40.82,0,0,1-9.27-.87,14.5,14.5,0,0,1-5.67-2.49A8.85,8.85,0,0,1,123,283.1a14.23,14.23,0,0,1-.84-5V257.63a14.23,14.23,0,0,1,.84-5,8.85,8.85,0,0,1,2.88-3.87,14.8,14.8,0,0,1,5.67-2.52,39.51,39.51,0,0,1,9.27-.9,39.51,39.51,0,0,1,9.27.9,14.8,14.8,0,0,1,5.67,2.52,8.63,8.63,0,0,1,2.85,3.87,14.71,14.71,0,0,1,.81,5Zm-23.64-2.16a2.58,2.58,0,0,0,.9,2q.9.81,4.14.81t4.17-.81a2.62,2.62,0,0,0,.87-2V259.79a2.57,2.57,0,0,0-.87-2q-.87-.78-4.17-.78t-4.14.78a2.53,2.53,0,0,0-.9,2Z"/><path class="cls-3" d="M178.24,289.43h-9a1.91,1.91,0,0,1-2.16-2.16V248.39a1.91,1.91,0,0,1,2.16-2.16h6.24a4.44,4.44,0,0,1,3.54,1.62l11.64,13.32V248.39a1.91,1.91,0,0,1,2.16-2.16h9a1.91,1.91,0,0,1,2.16,2.16v38.88a1.91,1.91,0,0,1-2.16,2.16h-9a1.91,1.91,0,0,1-2.16-2.16v-7.38L180.4,267.47v19.8A1.91,1.91,0,0,1,178.24,289.43Z"/><path class="cls-3" d="M223.42,289.43h-9a1.91,1.91,0,0,1-2.16-2.16V248.39a1.91,1.91,0,0,1,2.16-2.16h6.24a4.44,4.44,0,0,1,3.54,1.62l11.64,13.32V248.39a1.91,1.91,0,0,1,2.16-2.16h9a1.91,1.91,0,0,1,2.16,2.16v38.88a1.91,1.91,0,0,1-2.16,2.16h-9a1.91,1.91,0,0,1-2.16-2.16v-7.38l-10.26-12.42v19.8A1.91,1.91,0,0,1,223.42,289.43Z"/><path class="cls-3" d="M287.44,289.43H259.6a1.91,1.91,0,0,1-2.16-2.16V248.39a1.91,1.91,0,0,1,2.16-2.16h27.84a1.91,1.91,0,0,1,2.16,2.16v7a1.91,1.91,0,0,1-2.16,2.16H270.88v4.62h11.7a1.91,1.91,0,0,1,2.16,2.16v6.42a1.91,1.91,0,0,1-2.16,2.16h-11.7v5.16h16.56a1.91,1.91,0,0,1,2.16,2.16v7A1.91,1.91,0,0,1,287.44,289.43Z"/><path class="cls-3" d="M325.12,289.43H310.48q-7.56,0-11.16-3t-3.6-9.24V258.53c0-4.2,1.2-7.29,3.6-9.3s6.12-3,11.16-3h14.64a1.91,1.91,0,0,1,2.16,2.16v7.26a1.91,1.91,0,0,1-2.16,2.16H313.06q-3.66,0-3.66,3v14.28q0,2.88,3.66,2.88h12.06a1.91,1.91,0,0,1,2.16,2.16v7.14A1.91,1.91,0,0,1,325.12,289.43Z"/><path class="cls-3" d="M354.46,289.43h-9.72a1.91,1.91,0,0,1-2.16-2.16V257.81h-8.82a1.91,1.91,0,0,1-2.16-2.16v-7.26a1.91,1.91,0,0,1,2.16-2.16h31.68a1.91,1.91,0,0,1,2.16,2.16v7.26a1.91,1.91,0,0,1-2.16,2.16h-8.82v29.46A1.91,1.91,0,0,1,354.46,289.43Z"/><path class="cls-2" d="M226.29,113a5,5,0,0,1-1.38-.19L165.38,95.69a5,5,0,0,1-4.3-5v-60A5,5,0,0,1,164.45,26l20.88-7.2A4.82,4.82,0,0,1,187,18.5a5,5,0,0,1,5,5V35.84l7.94-3.05V17.32a5,5,0,0,1,3.37-4.73l21.22-7.32a5.06,5.06,0,0,1,3.26,0L249,12.59a5,5,0,0,1,3.37,4.73V32.79l8,3.05V23.5a5,5,0,0,1,5-5,4.9,4.9,0,0,1,1.63.28L287.79,26a5,5,0,0,1,3.37,4.72V89.44a5.24,5.24,0,0,1,.17,1.43,5,5,0,0,1-3.62,4.68l-60,17.25A5.06,5.06,0,0,1,226.29,113Z"/><path class="cls-2" d="M226.12,10l21.22,7.32v18.9l18,6.9V23.5l20.87,7.2v60l.17.06-60,17.25-60-17.25h-.18v-60L187,23.5V43.12l17.94-6.9V17.32L226.12,10m0-10a9.88,9.88,0,0,0-3.26.55L201.64,7.86a10,10,0,0,0-6.74,9.46v.11A10,10,0,0,0,187,13.5a9.88,9.88,0,0,0-3.26.55l-20.88,7.2a10,10,0,0,0-6.74,9.45v60a10,10,0,0,0,8.21,9.84l59.24,17a10.32,10.32,0,0,0,2.76.38,10.45,10.45,0,0,0,2.77-.38l60-17.26A10,10,0,0,0,296.33,91a9.81,9.81,0,0,0-.17-2.11V30.7a10,10,0,0,0-6.74-9.45l-20.87-7.2a10,10,0,0,0-9.07,1.31,10.26,10.26,0,0,0-2.14,2.07v-.11a10,10,0,0,0-6.74-9.46L229.38.55A9.83,9.83,0,0,0,226.12,0Z"/><polygon class="cls-1" points="247.34 17.32 247.34 36.22 265.29 43.13 265.29 23.5 286.16 30.7 286.16 90.74 226.12 70.04 226.12 10 247.34 17.32"/><polygon class="cls-3" points="204.9 17.32 204.9 36.22 186.96 43.13 186.96 23.5 166.08 30.7 166.08 90.74 226.12 70.04 226.12 10 204.9 17.32"/><path class="cls-7" d="M226.29,78.5l33.49,11.55-33.49,9.62-33.48-9.62L226.29,78.5m0-8.46-60,20.7,60,17.25,60-17.25-60-20.7Z"/></svg>